<?xml version="1.0" encoding="UTF-8" standalone="no"?>
<!DOCTYPE svg PUBLIC "-//W3C//DTD SVG 1.1//EN" "http://www.w3.org/Graphics/SVG/1.1/DTD/svg11.dtd">
<svg width="100%" height="100%" viewBox="0 0 1440 1440" version="1.1" xmlns="http://www.w3.org/2000/svg" xmlns:xlink="http://www.w3.org/1999/xlink" xml:space="preserve" xmlns:serif="http://www.serif.com/" style="fill-rule:evenodd;clip-rule:evenodd;stroke-linejoin:round;stroke-miterlimit:2;">
    <g transform="matrix(1,0,0,1,1.42109e-13,-430.324)">
        <path d="M1440,1150.32C1440,1547.7 1117.38,1870.32 720,1870.32C914.632,1870.32 1083.42,1758.78 1165.86,1596.18C1200.2,1528.44 1219.56,1451.85 1219.56,1370.76C1219.56,1291.66 1201.13,1216.83 1168.35,1150.32C1120.46,1053.2 1041.93,973.841 945.417,924.907C877.68,890.562 801.083,871.203 720,871.203C565.949,871.203 440.879,996.273 440.879,1150.32C440.879,1069.24 460.238,992.644 494.583,924.907C543.517,828.393 622.874,749.866 720,701.978C786.503,669.189 861.336,650.763 940.44,650.763C1021.52,650.763 1098.12,670.123 1165.86,704.467C1328.45,786.907 1440,955.692 1440,1150.32Z" style="fill:url(#_Linear1);"/>
    </g>
    <g transform="matrix(1,0,0,1,1.42109e-13,-430.324)">
        <path d="M720,1870.32C322.621,1870.32 -0,1547.7 -0,1150.32C-0,1344.96 111.547,1513.74 274.143,1596.18C341.88,1630.53 418.477,1649.88 499.56,1649.88C578.664,1649.88 653.497,1631.46 720,1598.67C817.126,1550.78 896.483,1472.25 945.417,1375.74C979.762,1308 999.121,1231.41 999.121,1150.32C999.121,996.273 874.051,871.203 720,871.203C801.083,871.203 877.68,890.562 945.417,924.907C1041.93,973.841 1120.46,1053.2 1168.35,1150.32C1201.13,1216.83 1219.56,1291.66 1219.56,1370.76C1219.56,1451.85 1200.2,1528.44 1165.86,1596.18C1083.42,1758.78 914.632,1870.32 720,1870.32Z" style="fill:url(#_Linear2);"/>
    </g>
    <g transform="matrix(1,0,0,1,1.42109e-13,-430.324)">
        <path d="M-0,1150.32C-0,752.945 322.621,430.324 720,430.324C525.368,430.324 356.584,541.87 274.143,704.467C239.799,772.204 220.44,848.801 220.44,929.884C220.44,1008.99 238.865,1083.82 271.654,1150.32C319.543,1247.45 398.069,1326.81 494.583,1375.74C562.32,1410.09 638.917,1429.44 720,1429.44C874.051,1429.44 999.121,1304.38 999.121,1150.32C999.121,1231.41 979.762,1308 945.417,1375.74C896.483,1472.25 817.126,1550.78 720,1598.67C653.497,1631.46 578.664,1649.88 499.56,1649.88C418.477,1649.88 341.88,1630.53 274.143,1596.18C111.547,1513.74 -0,1344.96 -0,1150.32Z" style="fill:url(#_Linear3);"/>
    </g>
    <g transform="matrix(1,0,0,1,1.42109e-13,-430.324)">
        <path d="M720,430.324C1117.38,430.324 1440,752.945 1440,1150.32C1440,955.692 1328.45,786.907 1165.86,704.467C1098.12,670.123 1021.52,650.763 940.44,650.763C861.336,650.763 786.503,669.189 720,701.978C622.874,749.866 543.517,828.393 494.583,924.907C460.238,992.644 440.879,1069.24 440.879,1150.32C440.879,1304.38 565.949,1429.44 720,1429.44C638.917,1429.44 562.32,1410.09 494.583,1375.74C398.069,1326.81 319.543,1247.45 271.654,1150.32C238.865,1083.82 220.44,1008.99 220.44,929.884C220.44,848.801 239.799,772.204 274.143,704.467C356.584,541.87 525.368,430.324 720,430.324Z" style="fill:url(#_Linear4);"/>
    </g>
    <g transform="matrix(1,0,0,1,1.42109e-13,-430.324)">
        <g transform="matrix(1.78042,0,0,1.78042,-841.02,-679.9)">
            <circle cx="876.773" cy="1027.98" r="156.773" style="fill:rgb(25,25,25);"/>
        </g>
    </g>
    <g transform="matrix(1,0,0,1,1.42109e-13,-430.324)">
        <g transform="matrix(1.8813,0,0,1.8813,558.058,773.834)">
            <circle cx="143.45" cy="128.286" r="38.477" style="fill:rgb(235,235,235);"/>
        </g>
    </g>
    <defs>
        <linearGradient id="_Linear1" x1="0" y1="0" x2="1" y2="0" gradientUnits="userSpaceOnUse" gradientTransform="matrix(1031.05,510.465,-510.465,1031.05,122.473,1066.93)"><stop offset="0" style="stop-color:rgb(243,4,119);stop-opacity:1"/><stop offset="1" style="stop-color:rgb(254,213,130);stop-opacity:1"/></linearGradient>
        <linearGradient id="_Linear2" x1="0" y1="0" x2="1" y2="0" gradientUnits="userSpaceOnUse" gradientTransform="matrix(-325.527,1142.82,-1142.82,-325.527,609.78,843.619)"><stop offset="0" style="stop-color:rgb(243,4,119);stop-opacity:1"/><stop offset="0.6" style="stop-color:rgb(250,130,126);stop-opacity:1"/><stop offset="1" style="stop-color:rgb(254,213,130);stop-opacity:1"/></linearGradient>
        <linearGradient id="_Linear3" x1="0" y1="0" x2="1" y2="0" gradientUnits="userSpaceOnUse" gradientTransform="matrix(-1170.78,-255.388,255.388,-1170.78,1219.56,871.214)"><stop offset="0" style="stop-color:rgb(243,4,119);stop-opacity:1"/><stop offset="1" style="stop-color:rgb(254,213,130);stop-opacity:1"/></linearGradient>
        <linearGradient id="_Linear4" x1="0" y1="0" x2="1" y2="0" gradientUnits="userSpaceOnUse" gradientTransform="matrix(633.127,-1179.21,1179.21,633.127,609.78,1609.53)"><stop offset="0" style="stop-color:rgb(243,4,119);stop-opacity:1"/><stop offset="1" style="stop-color:rgb(254,213,130);stop-opacity:1"/></linearGradient>
    </defs>
</svg>
