<?xml version="1.0" encoding="UTF-8" standalone="no"?>
<!DOCTYPE svg PUBLIC "-//W3C//DTD SVG 1.1//EN" "http://www.w3.org/Graphics/SVG/1.1/DTD/svg11.dtd">
<svg width="100%" height="100%" viewBox="0 0 1962 1962" version="1.1" xmlns="http://www.w3.org/2000/svg" xmlns:xlink="http://www.w3.org/1999/xlink" xml:space="preserve" xmlns:serif="http://www.serif.com/" style="fill-rule:evenodd;clip-rule:evenodd;stroke-linecap:round;stroke-linejoin:round;stroke-miterlimit:1.5;">
    <g transform="matrix(1,0,0,1,-0.00370029,0.00285794)">
        <g transform="matrix(1,0,0,1,-1019.08,-893.66)">
            <g transform="matrix(1.02251,0,0,1.02234,-67.1072,-19.9662)">
                <circle cx="2021.6" cy="1852.98" r="959.321" style="fill:rgb(39,37,38);fill-opacity:0.8;"/>
            </g>
        </g>
        <g transform="matrix(1,0,0,1,-1019.08,-893.66)">
            <g transform="matrix(0.765453,0,0,0.789931,454.914,371.315)">
                <path d="M2265.52,1705.21C2265.52,1595.97 2173.99,1507.28 2061.26,1507.28L1572.34,1507.28C1459.61,1507.28 1368.09,1595.97 1368.09,1705.21L1368.09,2101.06C1368.09,2210.3 1459.61,2298.99 1572.34,2298.99L2061.26,2298.99C2173.99,2298.99 2265.52,2210.3 2265.52,2101.06L2265.52,1705.21Z" style="fill:white;fill-opacity:0.88;stroke:black;stroke-width:1.03px;"/>
            </g>
        </g>
        <g transform="matrix(1,0,0,1,-1019.08,-893.66)">
            <g transform="matrix(4.79022e-17,-0.782172,0.574155,3.51511e-17,1259.44,4018.56)">
                <path d="M3096.1,2052.65C3105.29,2074.19 3105.33,2100.77 3096.21,2122.36C3087.1,2143.95 3070.2,2157.26 3051.92,2157.26L2429.99,2157.26C2411.71,2157.26 2394.82,2143.95 2385.7,2122.36C2376.58,2100.77 2376.62,2074.19 2385.81,2052.65C2430.6,1947.69 2497.01,1792.03 2526.29,1723.41C2535.44,1701.97 2552.27,1688.78 2570.47,1688.78L2911.44,1688.78C2929.64,1688.78 2946.47,1701.97 2955.62,1723.41C2984.9,1792.03 3051.32,1947.69 3096.1,2052.65Z" style="fill:white;fill-opacity:0.88;stroke:black;stroke-width:1.17px;"/>
            </g>
        </g>
    </g>
</svg>
